# xmcd CD database file
#
# Track frame offsets:
#	150
#	15583
#	28019
#	46246
#	60352
#	76883
#	90684
#	104748
#	118314
#	132670
#	143833
#	159939
#	172901
#	184602
#	196391
#	210197
#	223004
#	237366
#	250654
#	266956
#	278960
#	292257
#	306599
#	319017
#	329848
#
# Disc length: 4611 seconds
#
# Revision: 0
# Processed by: cddbd v1.5.2PL0 Copyright (c) Steve Scherf et al.
# Submitted via: CDex 1.77
#
DISCID=7c120119
DTITLE=Don Williams - It Must Be Love (The Collection)
DYEAR=1900
DGENRE=Country
TTITLE0=I Recall A Gypsy Woman
TTITLE1=You're My Best Friend
TTITLE2=I Believe In You
TTITLE3=Stay Young
TTITLE4=Love Is On A Roll
TTITLE5=I'm Just A Country Boy
TTITLE6=Tulsa Time
TTITLE7=I Wouldn't Want To Live If You Didn't Love Me
TTITLE8=Listen To The Radio
TTITLE9=It Must Be Love
TTITLE10=If I Needed You
TTITLE11=Lay Down Beside Me
TTITLE12=I've Got A Winner In You
TTITLE13=The Ties That Bind
TTITLE14=Walkin' A Broken Heart
TTITLE15=The Story Of My Life
TTITLE16=Amanda
TTITLE17=Love Me Over Again
TTITLE18=That's The Thing About Love
TTITLE19=Nobody But You
TTITLE20=Say It Again
TTITLE21=If Hollywood Don't Need You (Honey, I Still Do)
TTITLE22=Some Broken Hearts Never Mend
TTITLE23=(Turn Out The Light And) Love Me Tonight
TTITLE24='Till The Rivers All Run Dry
EXTD=
EXTT0=
EXTT1=
EXTT2=
EXTT3=
EXTT4=
EXTT5=
EXTT6=
EXTT7=
EXTT8=
EXTT9=
EXTT10=
EXTT11=
EXTT12=
EXTT13=
EXTT14=
EXTT15=
EXTT16=
EXTT17=
EXTT18=
EXTT19=
EXTT20=
EXTT21=
EXTT22=
EXTT23=
EXTT24=
PLAYORDER=
